<?xml version="1.0"?>
<svg width="269" height="70" xmlns="http://www.w3.org/2000/svg" xmlns:svg="http://www.w3.org/2000/svg">
 <defs>
  <style>.cls-1{fill:#fff;}.cls-2{fill:#803a9d;}.cls-3{fill:#6d6e71;}.cls-4{fill:none;stroke:#803a9d;stroke-miterlimit:10;}</style>
 </defs>
 <g class="layer">
  <title>Layer 1</title>
  <g data-name="Layer 2" id="Layer_2">
   <g data-name="-2_M_over" id="_-2_M_over">
    <g data-name="s1 copy" id="s1_copy">
     <g data-name="Rectangle 13" id="Rectangle_13">
      <rect class="cls-1" height="60" id="svg_1" width="269" y="10"/>
     </g>
     <g data-name="Rectangle 16" id="Rectangle_16">
      <rect class="cls-2" height="60" id="svg_2" width="60" x="10"/>
     </g>
     <g data-name="차량번호로 찾기 " id="차량번호로_찾기_">
      <path d="m97,51.45l-1.21,1.64a8,8 0 0 1 -4,-4.7a8.26,8.26 0 0 1 -4.25,5l-1.19,-1.68a7.77,7.77 0 0 0 4.34,-7l0,-0.92l-3.81,0l0,-1.79l3.77,0l0,-2.55l2.17,0l0,2.55l3.71,0l0,1.74l-3.73,0l0,0.92a7.56,7.56 0 0 0 4.2,6.79zm1.25,-12.37l2.16,0l0,7l2.72,0l0,1.82l-2.72,0l0,8.85l-2.16,0l0,-17.67z" id="svg_3"/>
      <path d="m104.33,40.18l8.07,0l0,5.07l-5.88,0l0,1.86a44.24,44.24 0 0 0 7.46,-0.53l0.24,1.74a43.27,43.27 0 0 1 -8.42,0.57l-1.45,0l0,-5.28l5.92,0l0,-1.72l-5.94,0l0,-1.71zm7.5,9.92c3.65,0 5.93,1.26 5.94,3.34s-2.29,3.26 -5.94,3.26s-6,-1.19 -6,-3.26s2.3,-3.33 6,-3.34zm0,5c2.44,0 3.79,-0.57 3.79,-1.62s-1.35,-1.64 -3.79,-1.64s-3.85,0.57 -3.84,1.64s1.37,1.59 3.84,1.58l0,0.04zm8.25,-11.66l-2.48,0l0,1.91l2.48,0l0,1.82l-2.48,0l0,2.64l-2.17,0l0,-10.71l2.17,0l0,2.5l2.48,0l0,1.84z" id="svg_4"/>
      <path d="m135.54,52.13l-2.17,0l0,-6.51l-3.55,0l0,3.64l-8.26,0l0,-9l2.17,0l0,2.86l3.94,0l0,-2.87l2.15,0l0,3.62l3.55,0l0,-4.77l2.17,0l0,13.03zm-7.87,-4.59l0,-2.75l-3.94,0l0,2.75l3.94,0zm-3.77,3.3l2.21,0l0,3.79l9.82,0l0,1.76l-12,0l-0.03,-5.55z" id="svg_5"/>
      <path d="m137.84,53.09l6.95,0l0,-2.17c-3,-0.24 -4.89,-1.47 -4.88,-3.42c0,-2.13 2.28,-3.4 6,-3.4s5.95,1.27 5.94,3.4c0,1.94 -1.86,3.17 -4.87,3.42l0,2.17l7,0l0,1.75l-16.14,0l0,-1.75zm15.31,-9.89l-14.59,0l0,-1.75l6.23,0l0,-2.13l2.15,0l0,2.13l6.21,0l0,1.75zm-7.28,6c2.35,0 3.71,-0.59 3.71,-1.72s-1.36,-1.69 -3.71,-1.7s-3.74,0.59 -3.73,1.7s1.33,1.73 3.73,1.74l0,-0.02z" id="svg_6"/>
      <path d="m171.06,54.69l-16.13,0l0,-1.8l6.95,0l0,-2.89l-5,0l0,-5.76l10.12,0l0,-2.19l-10.2,0l0,-1.76l12.35,0l0,5.71l-10.15,0l0,2.28l10.55,0l0,1.72l-5.55,0l0,2.87l7,0l0.06,1.82z" id="svg_7"/>
      <path d="m187.1,47.19l-1,1.66a6.59,6.59 0 0 1 -4.29,-3.23a6.69,6.69 0 0 1 -4.34,3.56l-1,-1.72c2.78,-0.75 4.28,-2.69 4.28,-4.76l0,-0.06l-3.69,0l0,-1.72l3.69,0l0,-1.92l2.18,0l0,1.92l3.68,0l0,1.72l-3.69,0l0,0.06c-0.02,1.89 1.41,3.75 4.18,4.49zm-3.49,4.57l-4.69,0l0,-1.76l11.82,0l0,1.74l-4.67,0c0.42,1.46 2.39,2.84 5.41,3.26l-0.78,1.66c-2.77,-0.39 -4.86,-1.57 -5.87,-3.17c-1,1.59 -3.1,2.74 -5.83,3.13l-0.8,-1.62c3.03,-0.41 4.99,-1.74 5.41,-3.24zm4.71,-12.68l2.16,0l0,4.1l2.46,0l0,1.82l-2.46,0l0,4.2l-2.16,0l0,-10.12z" id="svg_8"/>
      <path d="m200.91,42.68l-6.25,0l0,-1.68l8.46,0c0,5.25 -2.05,9.71 -8.23,12.65l-1.13,-1.73c4.63,-2.24 6.76,-5.23 7.15,-9.24zm7.48,14.06l-2.19,0l0,-17.66l2.19,0l0,17.66z" id="svg_9"/>
     </g>
     <g data-name="Tire Search" id="Tire_Search">
      <path class="cls-3" d="m86.17,24.5l6.5,0l0,0.9l-2.74,0l0,8.1l-1,0l0,-8.1l-2.76,0l0,-0.9z" id="svg_10"/>
      <path class="cls-3" d="m93.64,24.4l1,0l0,1.13l-1,0l0,-1.13zm0,2.6l1,0l0,6.5l-1,0l0,-6.5z" id="svg_11"/>
      <path class="cls-3" d="m96.36,27l1,0l0,0.88a7.22,7.22 0 0 1 2.38,-1l0,1a9.39,9.39 0 0 0 -2.36,0.89l0,4.73l-1,0l-0.02,-6.5z" id="svg_12"/>
      <path class="cls-3" d="m105.4,32.65l0,0.77a22.39,22.39 0 0 1 -2.53,0.21c-1.94,0 -2.58,-1.13 -2.58,-3.34c0,-2.47 1.07,-3.42 2.72,-3.42s2.61,0.91 2.61,3l0,0.74l-4.32,0c0,1.39 0.43,2.12 1.7,2.12c1,0.04 2.4,-0.08 2.4,-0.08zm-0.73,-2.78c0,-1.61 -0.5,-2.18 -1.64,-2.18s-1.73,0.61 -1.74,2.18l3.38,0z" id="svg_13"/>
      <path class="cls-3" d="m115,25.47s-1.81,-0.23 -2.56,-0.23c-1.28,0 -2,0.46 -2,1.47c0,1.17 0.62,1.37 2.19,1.72c1.8,0.4 2.59,0.84 2.59,2.42c0,2 -1.09,2.77 -2.87,2.77a23.32,23.32 0 0 1 -2.85,-0.29l0.1,-0.83s1.77,0.23 2.69,0.23c1.28,0 1.93,-0.56 1.93,-1.8c0,-1 -0.53,-1.3 -2,-1.59c-1.86,-0.4 -2.8,-0.85 -2.8,-2.56s1.15,-2.42 2.9,-2.42a22.38,22.38 0 0 1 2.72,0.26l-0.04,0.85z" id="svg_14"/>
      <path class="cls-3" d="m121.48,32.65l0,0.77a22.39,22.39 0 0 1 -2.53,0.21c-1.94,0 -2.58,-1.13 -2.58,-3.34c0,-2.47 1.07,-3.42 2.72,-3.42s2.61,0.91 2.61,3l0,0.74l-4.29,0c0,1.39 0.43,2.12 1.7,2.12c0.95,0.04 2.37,-0.08 2.37,-0.08zm-0.73,-2.78c0,-1.61 -0.5,-2.18 -1.64,-2.18s-1.73,0.61 -1.74,2.18l3.38,0z" id="svg_15"/>
      <path class="cls-3" d="m127.7,32.29c0,0.38 0.34,0.52 0.76,0.57l0,0.77a2,2 0 0 1 -1.55,-0.52a6.64,6.64 0 0 1 -2.34,0.52c-1.18,0 -1.83,-0.68 -1.83,-2s0.65,-1.79 2,-1.92l2,-0.2l0,-0.51c0,-0.91 -0.39,-1.23 -1.17,-1.23s-2.46,0.17 -2.46,0.17l0,-0.74a15.54,15.54 0 0 1 2.55,-0.29c1.47,0 2.09,0.68 2.09,2.09l-0.05,3.29zm-2.9,-1.85c-0.79,0.08 -1.1,0.46 -1.1,1.17s0.32,1.2 1,1.2a6.94,6.94 0 0 0 2,-0.4l0,-2.15l-1.9,0.18z" id="svg_16"/>
      <path class="cls-3" d="m129.5,27l1,0l0,0.88a7.22,7.22 0 0 1 2.38,-1l0,1a9.56,9.56 0 0 0 -2.37,0.89l0,4.73l-1,0l-0.01,-6.5z" id="svg_17"/>
      <path class="cls-3" d="m137.93,27.06l0,0.8s-1.05,-0.12 -1.54,-0.12c-1.49,0 -1.9,0.65 -1.9,2.39c0,1.93 0.3,2.63 1.91,2.63c0.5,0 1.54,-0.12 1.54,-0.12l0,0.81a17.46,17.46 0 0 1 -1.81,0.18c-2.07,0 -2.68,-1 -2.68,-3.5c0,-2.35 0.77,-3.26 2.71,-3.26a15.49,15.49 0 0 1 1.77,0.19z" id="svg_18"/>
      <path class="cls-3" d="m139.27,33.5l0,-9.33l1,0l0,3.19a5.53,5.53 0 0 1 2,-0.49c1.78,0 2.2,0.88 2.2,3.2l0,3.43l-1,0l0,-3.41c0,-1.71 -0.19,-2.35 -1.39,-2.35a5.34,5.34 0 0 0 -1.83,0.39l0,5.37l-0.98,0z" id="svg_19"/>
     </g>
    </g>
    <g data-name="s1 copy 2" id="s1_copy_2">
     <g data-name="Vector Smart Object Image" id="Vector_Smart_Object_Image-2">
      <path class="cls-1" d="m23.79,28.39l0,3.61a2.1,2.1 0 0 1 -0.67,1.66a2.71,2.71 0 0 1 -1.84,0.59a2.7,2.7 0 0 1 -1.85,-0.59a2.13,2.13 0 0 1 -0.66,-1.66l0,-3.61a2.13,2.13 0 0 1 0.66,-1.66a2.7,2.7 0 0 1 1.85,-0.59a2.71,2.71 0 0 1 1.84,0.59a2.1,2.1 0 0 1 0.67,1.66zm-1.39,3.55l0,-3.44a1.08,1.08 0 0 0 -0.29,-0.82a1.43,1.43 0 0 0 -1.67,0a1.11,1.11 0 0 0 -0.28,0.82l0,3.44a1.07,1.07 0 0 0 0.28,0.81a1.47,1.47 0 0 0 1.67,0a1,1 0 0 0 0.29,-0.81z" id="svg_20"/>
      <path class="cls-1" d="m30,28.39l0,3.61a2.13,2.13 0 0 1 -0.67,1.66a2.71,2.71 0 0 1 -1.84,0.59a2.69,2.69 0 0 1 -1.85,-0.59a2.13,2.13 0 0 1 -0.64,-1.66l0,-3.61a2.13,2.13 0 0 1 0.66,-1.66a2.69,2.69 0 0 1 1.85,-0.59a2.71,2.71 0 0 1 1.84,0.59a2.13,2.13 0 0 1 0.65,1.66zm-1.39,3.55l0,-3.44a1.08,1.08 0 0 0 -0.29,-0.82a1.17,1.17 0 0 0 -0.83,-0.27a1.15,1.15 0 0 0 -0.84,0.27a1.07,1.07 0 0 0 -0.28,0.82l0,3.44a1,1 0 0 0 0.28,0.81a1.14,1.14 0 0 0 0.84,0.26a1.17,1.17 0 0 0 0.83,-0.26a1,1 0 0 0 0.29,-0.81z" id="svg_21"/>
      <path class="cls-1" d="m35.05,33.72l-3.91,0l0,-7.14l3.52,0l0,1.07l-2.47,0l0,1.82l2.47,0l0,1.06l-2.47,0l0,2.14l2.86,0l0,1.05zm1.85,-3.29l0,3.63l-1,0l0,-7.6l1,0l0,2.86l0.89,0l0,1.11l-0.89,0z" id="svg_22"/>
      <path class="cls-1" d="m43.43,28.39l0,3.61a2.1,2.1 0 0 1 -0.67,1.66a3.18,3.18 0 0 1 -3.69,0a2.12,2.12 0 0 1 -0.65,-1.66l0,-3.61a2.12,2.12 0 0 1 0.65,-1.66a3.18,3.18 0 0 1 3.69,0a2.1,2.1 0 0 1 0.67,1.66zm-1.43,3.55l0,-3.44a1,1 0 0 0 -0.29,-0.82a1.15,1.15 0 0 0 -0.83,-0.27a1.18,1.18 0 0 0 -0.84,0.27a1.11,1.11 0 0 0 -0.28,0.82l0,3.44a1.07,1.07 0 0 0 0.28,0.81a1.18,1.18 0 0 0 0.84,0.26a1.15,1.15 0 0 0 0.83,-0.26a1,1 0 0 0 0.29,-0.81z" id="svg_23"/>
      <path class="cls-1" d="m49.64,28.39l0,3.61a2.13,2.13 0 0 1 -0.64,1.69a3.18,3.18 0 0 1 -3.69,0a2.13,2.13 0 0 1 -0.69,-1.69l0,-3.61a2.13,2.13 0 0 1 0.66,-1.66a3.18,3.18 0 0 1 3.69,0a2.13,2.13 0 0 1 0.67,1.66zm-1.39,3.55l0,-3.44a1.08,1.08 0 0 0 -0.29,-0.82a1.17,1.17 0 0 0 -0.83,-0.27a1.15,1.15 0 0 0 -0.84,0.27a1.07,1.07 0 0 0 -0.28,0.82l0,3.44a1,1 0 0 0 0.28,0.81a1.14,1.14 0 0 0 0.84,0.26a1.17,1.17 0 0 0 0.83,-0.26a1,1 0 0 0 0.29,-0.81z" id="svg_24"/>
      <path class="cls-1" d="m55.84,28.39l0,3.61a2.13,2.13 0 0 1 -0.66,1.66a3.18,3.18 0 0 1 -3.69,0a2.13,2.13 0 0 1 -0.66,-1.66l0,-3.61a2.13,2.13 0 0 1 0.66,-1.66a3.18,3.18 0 0 1 3.69,0a2.13,2.13 0 0 1 0.66,1.66zm-1.39,3.55l0,-3.44a1.07,1.07 0 0 0 -0.28,-0.82a1.17,1.17 0 0 0 -0.83,-0.27a1.15,1.15 0 0 0 -0.84,0.27a1.07,1.07 0 0 0 -0.28,0.82l0,3.44a1,1 0 0 0 0.28,0.81a1.14,1.14 0 0 0 0.84,0.26a1.17,1.17 0 0 0 0.83,-0.26a1,1 0 0 0 0.28,-0.81z" id="svg_25"/>
      <path class="cls-1" d="m62.05,28.39l0,3.61a2.1,2.1 0 0 1 -0.67,1.66a3.18,3.18 0 0 1 -3.69,0a2.12,2.12 0 0 1 -0.69,-1.66l0,-3.61a2.12,2.12 0 0 1 0.65,-1.66a3.18,3.18 0 0 1 3.69,0a2.1,2.1 0 0 1 0.71,1.66zm-1.39,3.55l0,-3.44a1,1 0 0 0 -0.29,-0.82a1.15,1.15 0 0 0 -0.83,-0.27a1.18,1.18 0 0 0 -0.84,0.27a1.11,1.11 0 0 0 -0.27,0.82l0,3.44a1.07,1.07 0 0 0 0.27,0.81a1.18,1.18 0 0 0 0.84,0.26a1.15,1.15 0 0 0 0.83,-0.26a1,1 0 0 0 0.29,-0.81z" id="svg_26"/>
     </g>
     <polyline class="cls-4" id="svg_27" points="240 47.67 247.76 39.9 240.35 32.49"/>
    </g>
   </g>
  </g>
  <rect fill="#ffffff" height="14" id="svg_30" stroke="#ffffff" width="69" x="83.5" y="21"/>
 </g>
</svg>