<?xml version="1.0"?>
<svg width="269" height="70" xmlns="http://www.w3.org/2000/svg" xmlns:svg="http://www.w3.org/2000/svg">
 <defs>
  <style>.cls-1{fill:#fff;}.cls-2{fill:#803a9d;}.cls-3{fill:#6d6e71;}.cls-4,.cls-5{fill:none;stroke-miterlimit:10;}.cls-4{stroke:#fff;}.cls-5{stroke:#803a9d;}</style>
 </defs>
 <g class="layer">
  <title>Layer 1</title>
  <g data-name="Layer 2" id="Layer_2">
   <g data-name="-2_M_over" id="_-2_M_over">
    <g data-name="s1 copy 3" id="s1_copy_3">
     <g data-name="Rectangle 13" id="Rectangle_13">
      <rect class="cls-1" height="60" id="svg_1" width="269" y="10"/>
     </g>
     <g data-name="Rectangle 16" id="Rectangle_16">
      <rect class="cls-2" height="60" id="svg_2" width="60" x="10"/>
     </g>
     <g data-name="사이즈로 찾기 " id="사이즈로_찾기_">
      <path d="m97.19,51l-1.33,1.73a8.53,8.53 0 0 1 -4,-5.07a8.92,8.92 0 0 1 -4.24,5.41l-1.33,-1.74c2.85,-1.35 4.47,-4.73 4.48,-8l0,-2.82l2.16,0l0,2.81c-0.05,3.15 1.53,6.34 4.26,7.68zm1.06,-11.9l2.16,0l0,6.9l2.72,0l0,1.85l-2.72,0l0,8.89l-2.16,0l0,-17.64z" id="svg_3"/>
      <path d="m108.85,40.37c2.64,0 4.6,2.42 4.61,6.23s-2,6.25 -4.61,6.25s-4.62,-2.41 -4.61,-6.25s1.93,-6.23 4.61,-6.23zm0,10.53c1.48,0 2.5,-1.58 2.5,-4.3s-1,-4.28 -2.5,-4.28s-2.52,1.59 -2.52,4.28s1.02,4.29 2.52,4.3zm9.51,5.86l-2.19,0l0,-17.68l2.19,0l0,17.68z" id="svg_4"/>
      <path d="m136.89,54.53l-16.13,0l0,-1.8l16.13,0l0,1.8zm-9.24,-11.83l0,-0.28l-5.55,0l0,-1.74l13.4,0l0,1.74l-5.56,0l0,0.28c0,2.58 2.63,4.94 6.3,5.5l-0.86,1.72a9.07,9.07 0 0 1 -6.57,-4.33a9,9 0 0 1 -6.49,4.41l-0.86,-1.76c3.54,-0.53 6.2,-2.96 6.19,-5.54z" id="svg_5"/>
      <path d="m154,54.69l-16.16,0l0,-1.8l6.95,0l0,-2.89l-5,0l0,-5.76l10.15,0l0,-2.19l-10.22,0l0,-1.76l12.34,0l0,5.71l-10.14,0l0,2.28l10.55,0l0,1.72l-5.53,0l0,2.87l7,0l0.06,1.82z" id="svg_6"/>
      <path d="m170,47.19l-1,1.66a6.57,6.57 0 0 1 -4.28,-3.23a6.73,6.73 0 0 1 -4.35,3.56l-1,-1.72c2.78,-0.75 4.27,-2.69 4.27,-4.76l0,-0.06l-3.64,0l0,-1.72l3.69,0l0,-1.92l2.19,0l0,1.92l3.67,0l0,1.72l-3.69,0l0,0.06c-0.05,1.89 1.39,3.75 4.14,4.49zm-3.5,4.57l-4.68,0l0,-1.76l11.81,0l0,1.74l-4.63,0c0.42,1.46 2.4,2.84 5.41,3.26l-0.78,1.66c-2.76,-0.39 -4.85,-1.57 -5.87,-3.17c-1,1.59 -3.09,2.74 -5.83,3.13l-0.8,-1.64c3.01,-0.39 4.97,-1.72 5.39,-3.22l-0.02,0zm4.71,-12.68l2.17,0l0,4.1l2.46,0l0,1.82l-2.44,0l0,4.2l-2.17,0l-0.02,-10.12z" id="svg_7"/>
      <path d="m183.82,42.68l-6.25,0l0,-1.68l8.43,0c0,5.25 -2,9.71 -8.22,12.65l-1.14,-1.73c4.66,-2.24 6.79,-5.23 7.18,-9.24zm7.48,14.06l-2.18,0l0,-17.66l2.18,0l0,17.66z" id="svg_8"/>
     </g>
     <g data-name="Tire Search" id="Tire_Search">
      <path class="cls-3" d="m86.17,24.5l6.5,0l0,0.9l-2.74,0l0,8.1l-1,0l0,-8.1l-2.76,0l0,-0.9z" id="svg_9"/>
      <path class="cls-3" d="m93.64,24.4l1,0l0,1.13l-1,0l0,-1.13zm0,2.6l1,0l0,6.5l-1,0l0,-6.5z" id="svg_10"/>
      <path class="cls-3" d="m96.36,27l1,0l0,0.88a7.22,7.22 0 0 1 2.38,-1l0,1a9.39,9.39 0 0 0 -2.36,0.89l0,4.73l-1,0l-0.02,-6.5z" id="svg_11"/>
      <path class="cls-3" d="m105.4,32.65l0,0.77a22.39,22.39 0 0 1 -2.53,0.21c-1.94,0 -2.58,-1.13 -2.58,-3.34c0,-2.47 1.07,-3.42 2.72,-3.42s2.61,0.91 2.61,3l0,0.74l-4.32,0c0,1.39 0.43,2.12 1.7,2.12c1,0.04 2.4,-0.08 2.4,-0.08zm-0.73,-2.78c0,-1.61 -0.5,-2.18 -1.64,-2.18s-1.73,0.61 -1.74,2.18l3.38,0z" id="svg_12"/>
      <path class="cls-3" d="m115,25.47s-1.81,-0.23 -2.56,-0.23c-1.28,0 -2,0.46 -2,1.47c0,1.17 0.62,1.37 2.19,1.72c1.8,0.4 2.59,0.84 2.59,2.42c0,2 -1.09,2.77 -2.87,2.77a23.32,23.32 0 0 1 -2.85,-0.29l0.1,-0.83s1.77,0.23 2.69,0.23c1.28,0 1.93,-0.56 1.93,-1.8c0,-1 -0.53,-1.3 -2,-1.59c-1.86,-0.4 -2.8,-0.85 -2.8,-2.56s1.15,-2.42 2.9,-2.42a22.38,22.38 0 0 1 2.72,0.26l-0.04,0.85z" id="svg_13"/>
      <path class="cls-3" d="m121.48,32.65l0,0.77a22.39,22.39 0 0 1 -2.53,0.21c-1.94,0 -2.58,-1.13 -2.58,-3.34c0,-2.47 1.07,-3.42 2.72,-3.42s2.61,0.91 2.61,3l0,0.74l-4.29,0c0,1.39 0.43,2.12 1.7,2.12c0.95,0.04 2.37,-0.08 2.37,-0.08zm-0.73,-2.78c0,-1.61 -0.5,-2.18 -1.64,-2.18s-1.73,0.61 -1.74,2.18l3.38,0z" id="svg_14"/>
      <path class="cls-3" d="m127.7,32.29c0,0.38 0.34,0.52 0.76,0.57l0,0.77a2,2 0 0 1 -1.55,-0.52a6.64,6.64 0 0 1 -2.34,0.52c-1.18,0 -1.83,-0.68 -1.83,-2s0.65,-1.79 2,-1.92l2,-0.2l0,-0.51c0,-0.91 -0.39,-1.23 -1.17,-1.23s-2.46,0.17 -2.46,0.17l0,-0.74a15.54,15.54 0 0 1 2.55,-0.29c1.47,0 2.09,0.68 2.09,2.09l-0.05,3.29zm-2.9,-1.85c-0.79,0.08 -1.1,0.46 -1.1,1.17s0.32,1.2 1,1.2a6.94,6.94 0 0 0 2,-0.4l0,-2.15l-1.9,0.18z" id="svg_15"/>
      <path class="cls-3" d="m129.5,27l1,0l0,0.88a7.22,7.22 0 0 1 2.38,-1l0,1a9.56,9.56 0 0 0 -2.37,0.89l0,4.73l-1,0l-0.01,-6.5z" id="svg_16"/>
      <path class="cls-3" d="m137.93,27.06l0,0.8s-1,-0.12 -1.54,-0.12c-1.49,0 -1.9,0.65 -1.9,2.39c0,1.93 0.3,2.63 1.91,2.63c0.5,0 1.54,-0.12 1.54,-0.12l0,0.81a17.46,17.46 0 0 1 -1.81,0.18c-2.07,0 -2.68,-1 -2.68,-3.5c0,-2.35 0.77,-3.26 2.71,-3.26a15.49,15.49 0 0 1 1.77,0.19z" id="svg_17"/>
      <path class="cls-3" d="m139.27,33.5l0,-9.33l1,0l0,3.19a5.53,5.53 0 0 1 2,-0.49c1.78,0 2.2,0.88 2.2,3.2l0,3.43l-1,0l0,-3.41c0,-1.71 -0.19,-2.35 -1.39,-2.35a5.34,5.34 0 0 0 -1.83,0.39l0,5.37l-0.98,0z" id="svg_18"/>
     </g>
     <circle class="cls-4" cx="45.28" cy="29.83" id="svg_19" r="14.72"/>
     <circle class="cls-4" cx="45.28" cy="29.83" id="svg_20" r="1.9"/>
     <path class="cls-4" d="m46.23,39.33l0.4,-4.07a1.91,1.91 0 0 1 2.68,-1.54l3.69,1.68" id="svg_21"/>
     <path class="cls-4" d="m37.53,24.26l3.72,1.68a1.9,1.9 0 0 0 2.67,-1.54l0.41,-4.07" id="svg_22"/>
     <path class="cls-4" d="m37.53,35.4l3.72,-1.68a1.9,1.9 0 0 1 2.67,1.54l0.41,4.07" id="svg_23"/>
     <path class="cls-4" d="m54,25.9l-3.32,2.39a1.9,1.9 0 0 0 0,3.08l3.32,2.39" id="svg_24"/>
     <path class="cls-4" d="m53,24.26l-3.72,1.68a1.91,1.91 0 0 1 -2.68,-1.54l-0.4,-4.07" id="svg_25"/>
     <path class="cls-4" d="m36.58,33.76l3.31,-2.39a1.89,1.89 0 0 0 0,-3.08l-3.31,-2.39" id="svg_26"/>
     <path class="cls-4" d="m46.28,20.87a9,9 0 0 1 6.25,3.61" id="svg_27"/>
     <path class="cls-4" d="m38,24.48a9,9 0 0 1 6.25,-3.61" id="svg_28"/>
     <path class="cls-4" d="m53.54,33.44a9,9 0 0 0 0,-7.22" id="svg_29"/>
     <path class="cls-4" d="m52.53,35.18a9,9 0 0 1 -6.25,3.62" id="svg_30"/>
     <path class="cls-4" d="m44.27,38.8a9,9 0 0 1 -6.27,-3.62" id="svg_31"/>
     <path class="cls-4" d="m37,26.22a9,9 0 0 0 0,7.22" id="svg_32"/>
     <rect class="cls-2" height="26.6" id="svg_33" width="6.79" x="28.22" y="16.61"/>
     <rect class="cls-4" height="29.46" id="svg_34" width="7.83" x="23" y="15.17"/>
     <line class="cls-4" id="svg_35" x1="26.07" x2="30.37" y1="18.86" y2="18.86"/>
     <line class="cls-4" id="svg_36" x1="27.3" x2="30.37" y1="22.54" y2="22.54"/>
     <line class="cls-4" id="svg_37" x1="27.3" x2="30.37" y1="26.22" y2="26.22"/>
     <line class="cls-4" id="svg_38" x1="26.07" x2="30.37" y1="29.91" y2="29.91"/>
     <line class="cls-4" id="svg_39" x1="27.3" x2="30.37" y1="33.59" y2="33.59"/>
     <line class="cls-4" id="svg_40" x1="27.3" x2="30.37" y1="37.27" y2="37.27"/>
     <line class="cls-4" id="svg_41" x1="26.07" x2="30.37" y1="40.96" y2="40.96"/>
     <polyline class="cls-5" id="svg_42" points="240.62 47.59 248.38 39.83 240.97 32.41"/>
    </g>
   </g>
  </g>
  <rect fill="#ffffff" height="14" id="svg_43" stroke="#ffffff" width="61.5" x="86" y="20.5"/>
 </g>
</svg>