<?xml version="1.0"?>
<svg width="269" height="70" xmlns="http://www.w3.org/2000/svg" xmlns:svg="http://www.w3.org/2000/svg">
 <defs>
  <style>.cls-1{fill:#fff;}.cls-2{fill:#803a9d;}.cls-3,.cls-5{fill:none;}.cls-3{stroke:#fff;stroke-linecap:round;stroke-linejoin:round;}.cls-4{fill:#6d6e71;}.cls-5{stroke:#803a9d;stroke-miterlimit:10;}</style>
 </defs>
 <g class="layer">
  <title>Layer 1</title>
  <g data-name="Layer 2" id="Layer_2">
   <g data-name="-2_M_over" id="_-2_M_over">
    <g data-name="s1 copy 2" id="s1_copy_2">
     <g data-name="Rectangle 13" id="Rectangle_13">
      <rect class="cls-1" height="60" id="svg_1" width="269" y="10"/>
     </g>
     <g data-name="Rectangle 16" id="Rectangle_16">
      <rect class="cls-2" height="60" id="svg_2" width="60" x="10"/>
     </g>
     <g data-name="Vector Smart Object Image" id="Vector_Smart_Object_Image">
      <g data-name="13" id="_13">
       <circle class="cls-3" cx="52.5" cy="34.89" id="svg_3" r="4.12"/>
       <circle class="cls-3" cx="24.7" cy="34.89" id="svg_4" r="4.12"/>
       <path class="cls-3" d="m59.71,35.91l1,0l2.06,-4.11l-1,-3.09l2.06,-3.09l-8.24,0a16.82,16.82 0 0 0 -11.33,-4.12c-7.21,0 -14.41,4.12 -14.41,4.12s-11.33,-1 -12.36,5.15l0,4.12l1,1l2.06,0" id="svg_5"/>
       <line class="cls-3" id="svg_6" x1="48.38" x2="31.9" y1="35.91" y2="35.91"/>
       <polyline class="cls-3" id="svg_7" points="50.44 25.62 46.32 28.71 34.99 28.71 29.84 25.62"/>
       <line class="cls-3" id="svg_8" x1="43.23" x2="41.17" y1="24.59" y2="28.71"/>
      </g>
     </g>
     <g data-name="차종으로 찾기 " id="차종으로_찾기_">
      <path d="m97,51.45l-1.21,1.64a8,8 0 0 1 -4,-4.7a8.26,8.26 0 0 1 -4.25,5l-1.19,-1.68a7.77,7.77 0 0 0 4.34,-7l0,-0.92l-3.81,0l0,-1.79l3.77,0l0,-2.55l2.17,0l0,2.55l3.71,0l0,1.74l-3.73,0l0,0.92a7.56,7.56 0 0 0 4.2,6.79zm1.25,-12.37l2.16,0l0,7l2.72,0l0,1.82l-2.72,0l0,8.85l-2.16,0l0,-17.67z" id="svg_9"/>
      <path d="m112.77,47.64l7,0l0,1.75l-16.1,0l0,-1.75l7,0l0,-2.25l2.15,0l-0.05,2.25zm-2.6,-6l-5,0l0,-1.78l13.18,0l0,1.74l-5.09,0c0.36,1.44 2.48,2.73 5.77,3l-0.78,1.7c-3.25,-0.3 -5.59,-1.53 -6.55,-3.3c-1,1.78 -3.3,3 -6.51,3.36l-0.76,-1.7c3.26,-0.33 5.38,-1.61 5.74,-3.06l0,0.04zm1.53,8.93c3.83,0 6.1,1.1 6.11,3.08s-2.28,3.11 -6.11,3.11s-6.15,-1.1 -6.15,-3.11s2.29,-3.12 6.15,-3.12l0,0.04zm0,4.55c2.55,0 3.92,-0.5 3.94,-1.47s-1.39,-1.41 -3.94,-1.42s-4,0.49 -4,1.42s1.4,1.43 4,1.43l0,0.04z" id="svg_10"/>
      <path d="m120.76,52.73l16.13,0l0,1.78l-16.13,0l0,-1.78zm14.61,-7.67c0,3 -2.87,5 -6.59,5s-6.55,-2 -6.54,-5s2.84,-5 6.54,-5s6.6,2 6.59,5zm-6.59,3.24c2.58,0 4.46,-1.24 4.46,-3.24s-1.88,-3.24 -4.46,-3.22s-4.46,1.27 -4.45,3.22s1.89,3.23 4.45,3.24z" id="svg_11"/>
      <path d="m154,54.69l-16.16,0l0,-1.8l6.95,0l0,-2.89l-5,0l0,-5.76l10.15,0l0,-2.19l-10.22,0l0,-1.76l12.34,0l0,5.71l-10.14,0l0,2.28l10.55,0l0,1.72l-5.53,0l0,2.87l7,0l0.06,1.82z" id="svg_12"/>
      <path d="m170,47.19l-1,1.66a6.57,6.57 0 0 1 -4.28,-3.23a6.73,6.73 0 0 1 -4.35,3.56l-1,-1.72c2.78,-0.75 4.27,-2.69 4.27,-4.76l0,-0.06l-3.64,0l0,-1.72l3.69,0l0,-1.92l2.19,0l0,1.92l3.67,0l0,1.72l-3.69,0l0,0.06c-0.05,1.89 1.39,3.75 4.14,4.49zm-3.5,4.57l-4.68,0l0,-1.76l11.81,0l0,1.74l-4.63,0c0.42,1.46 2.4,2.84 5.41,3.26l-0.78,1.66c-2.76,-0.39 -4.85,-1.57 -5.87,-3.17c-1,1.59 -3.09,2.74 -5.83,3.13l-0.8,-1.64c3.01,-0.39 4.97,-1.72 5.39,-3.22l-0.02,0zm4.71,-12.68l2.17,0l0,4.1l2.46,0l0,1.82l-2.44,0l0,4.2l-2.17,0l-0.02,-10.12z" id="svg_13"/>
      <path d="m183.82,42.68l-6.25,0l0,-1.68l8.43,0c0,5.25 -2,9.71 -8.22,12.65l-1.14,-1.73c4.66,-2.24 6.79,-5.23 7.18,-9.24zm7.48,14.06l-2.18,0l0,-17.66l2.18,0l0,17.66z" id="svg_14"/>
     </g>
     <g data-name="Tire Search" id="Tire_Search">
      <path class="cls-4" d="m86.17,24.5l6.5,0l0,0.9l-2.74,0l0,8.1l-1,0l0,-8.1l-2.76,0l0,-0.9z" id="svg_15"/>
      <path class="cls-4" d="m93.64,24.4l1,0l0,1.13l-1,0l0,-1.13zm0,2.6l1,0l0,6.5l-1,0l0,-6.5z" id="svg_16"/>
      <path class="cls-4" d="m96.36,27l1,0l0,0.88a7.22,7.22 0 0 1 2.38,-1l0,1a9.39,9.39 0 0 0 -2.36,0.89l0,4.73l-1,0l-0.02,-6.5z" id="svg_17"/>
      <path class="cls-4" d="m105.4,32.65l0,0.77a22.39,22.39 0 0 1 -2.53,0.21c-1.94,0 -2.58,-1.13 -2.58,-3.34c0,-2.47 1.07,-3.42 2.72,-3.42s2.61,0.91 2.61,3l0,0.74l-4.32,0c0,1.39 0.43,2.12 1.7,2.12c1,0.04 2.4,-0.08 2.4,-0.08zm-0.73,-2.78c0,-1.61 -0.5,-2.18 -1.64,-2.18s-1.73,0.61 -1.74,2.18l3.38,0z" id="svg_18"/>
      <path class="cls-4" d="m115,25.47s-1.81,-0.23 -2.56,-0.23c-1.28,0 -2,0.46 -2,1.47c0,1.17 0.62,1.37 2.19,1.72c1.8,0.4 2.59,0.84 2.59,2.42c0,2 -1.09,2.77 -2.87,2.77a23.32,23.32 0 0 1 -2.85,-0.29l0.1,-0.83s1.77,0.23 2.69,0.23c1.28,0 1.93,-0.56 1.93,-1.8c0,-1 -0.53,-1.3 -2,-1.59c-1.86,-0.4 -2.8,-0.85 -2.8,-2.56s1.15,-2.42 2.9,-2.42a22.38,22.38 0 0 1 2.72,0.26l-0.04,0.85z" id="svg_19"/>
      <path class="cls-4" d="m121.48,32.65l0,0.77a22.39,22.39 0 0 1 -2.53,0.21c-1.94,0 -2.58,-1.13 -2.58,-3.34c0,-2.47 1.07,-3.42 2.72,-3.42s2.61,0.91 2.61,3l0,0.74l-4.29,0c0,1.39 0.43,2.12 1.7,2.12c0.95,0.04 2.37,-0.08 2.37,-0.08zm-0.73,-2.78c0,-1.61 -0.5,-2.18 -1.64,-2.18s-1.73,0.61 -1.74,2.18l3.38,0z" id="svg_20"/>
      <path class="cls-4" d="m127.7,32.29c0,0.38 0.34,0.52 0.76,0.57l0,0.77a2,2 0 0 1 -1.55,-0.52a6.64,6.64 0 0 1 -2.34,0.52c-1.18,0 -1.83,-0.68 -1.83,-2s0.65,-1.79 2,-1.92l2,-0.2l0,-0.51c0,-0.91 -0.39,-1.23 -1.17,-1.23s-2.46,0.17 -2.46,0.17l0,-0.74a15.54,15.54 0 0 1 2.55,-0.29c1.47,0 2.09,0.68 2.09,2.09l-0.05,3.29zm-2.9,-1.85c-0.79,0.08 -1.1,0.46 -1.1,1.17s0.32,1.2 1,1.2a6.94,6.94 0 0 0 2,-0.4l0,-2.15l-1.9,0.18z" id="svg_21"/>
      <path class="cls-4" d="m129.5,27l1,0l0,0.88a7.22,7.22 0 0 1 2.38,-1l0,1a9.56,9.56 0 0 0 -2.37,0.89l0,4.73l-1,0l-0.01,-6.5z" id="svg_22"/>
      <path class="cls-4" d="m137.93,27.06l0,0.8s-1,-0.12 -1.54,-0.12c-1.49,0 -1.9,0.65 -1.9,2.39c0,1.93 0.3,2.63 1.91,2.63c0.5,0 1.54,-0.12 1.54,-0.12l0,0.81a17.46,17.46 0 0 1 -1.81,0.18c-2.07,0 -2.68,-1 -2.68,-3.5c0,-2.35 0.77,-3.26 2.71,-3.26a15.49,15.49 0 0 1 1.77,0.19z" id="svg_23"/>
      <path class="cls-4" d="m139.27,33.5l0,-9.33l1,0l0,3.19a5.53,5.53 0 0 1 2,-0.49c1.78,0 2.2,0.88 2.2,3.2l0,3.43l-1,0l0,-3.41c0,-1.71 -0.19,-2.35 -1.39,-2.35a5.34,5.34 0 0 0 -1.83,0.39l0,5.37l-0.98,0z" id="svg_24"/>
     </g>
     <polyline class="cls-5" id="svg_25" points="240.62 47.45 248.38 39.69 240.97 32.27"/>
    </g>
   </g>
  </g>
  <rect fill="#ffffff" height="17.5" id="svg_26" stroke="#ffffff" width="66.5" x="83.5" y="19"/>
 </g>
</svg>